<mxfile host="app.diagrams.net" modified="2021-02-22T15:34:44.353Z" agent="5.0 (Windows NT 10.0; Win64; x64) AppleWebKit/537.36 (KHTML, like Gecko) Chrome/88.0.4324.182 Safari/537.36" etag="5OV_Ot8wyY3UD0N0wcuh" version="14.2.9" type="github">
  <diagram id="R2lEEEUBdFMjLlhIrx00" name="Page-1">
    <mxGraphModel dx="782" dy="469" grid="1" gridSize="10" guides="1" tooltips="1" connect="1" arrows="1" fold="1" page="1" pageScale="1" pageWidth="850" pageHeight="1100" math="0" shadow="0" extFonts="Permanent Marker^https://fonts.googleapis.com/css?family=Permanent+Marker">
      <root>
        <mxCell id="0" />
        <mxCell id="1" parent="0" />
        <mxCell id="C-vyLk0tnHw3VtMMgP7b-23" value="Customer" style="shape=table;startSize=30;container=1;collapsible=1;childLayout=tableLayout;fixedRows=1;rowLines=0;fontStyle=1;align=center;resizeLast=1;" parent="1" vertex="1">
          <mxGeometry x="480" y="80" width="280" height="240" as="geometry" />
        </mxCell>
        <mxCell id="C-vyLk0tnHw3VtMMgP7b-24" value="" style="shape=partialRectangle;collapsible=0;dropTarget=0;pointerEvents=0;fillColor=none;points=[[0,0.5],[1,0.5]];portConstraint=eastwest;top=0;left=0;right=0;bottom=1;" parent="C-vyLk0tnHw3VtMMgP7b-23" vertex="1">
          <mxGeometry y="30" width="280" height="30" as="geometry" />
        </mxCell>
        <mxCell id="C-vyLk0tnHw3VtMMgP7b-25" value="PK" style="shape=partialRectangle;overflow=hidden;connectable=0;fillColor=none;top=0;left=0;bottom=0;right=0;fontStyle=1;" parent="C-vyLk0tnHw3VtMMgP7b-24" vertex="1">
          <mxGeometry width="30" height="30" as="geometry" />
        </mxCell>
        <mxCell id="C-vyLk0tnHw3VtMMgP7b-26" value="customer_id Number  NOT NULL " style="shape=partialRectangle;overflow=hidden;connectable=0;fillColor=none;top=0;left=0;bottom=0;right=0;align=left;spacingLeft=6;fontStyle=5;" parent="C-vyLk0tnHw3VtMMgP7b-24" vertex="1">
          <mxGeometry x="30" width="250" height="30" as="geometry" />
        </mxCell>
        <mxCell id="C-vyLk0tnHw3VtMMgP7b-27" value="" style="shape=partialRectangle;collapsible=0;dropTarget=0;pointerEvents=0;fillColor=none;points=[[0,0.5],[1,0.5]];portConstraint=eastwest;top=0;left=0;right=0;bottom=0;" parent="C-vyLk0tnHw3VtMMgP7b-23" vertex="1">
          <mxGeometry y="60" width="280" height="30" as="geometry" />
        </mxCell>
        <mxCell id="C-vyLk0tnHw3VtMMgP7b-28" value="" style="shape=partialRectangle;overflow=hidden;connectable=0;fillColor=none;top=0;left=0;bottom=0;right=0;" parent="C-vyLk0tnHw3VtMMgP7b-27" vertex="1">
          <mxGeometry width="30" height="30" as="geometry" />
        </mxCell>
        <mxCell id="C-vyLk0tnHw3VtMMgP7b-29" value="customer_name char(50) NOT NULL" style="shape=partialRectangle;overflow=hidden;connectable=0;fillColor=none;top=0;left=0;bottom=0;right=0;align=left;spacingLeft=6;" parent="C-vyLk0tnHw3VtMMgP7b-27" vertex="1">
          <mxGeometry x="30" width="250" height="30" as="geometry" />
        </mxCell>
        <mxCell id="zXwG6xM1pBQp9K-t3F6Q-1" value="customer_Address char(50) NOT NULL" style="shape=partialRectangle;overflow=hidden;connectable=0;fillColor=none;top=0;left=0;bottom=0;right=0;align=left;spacingLeft=6;" vertex="1" parent="1">
          <mxGeometry x="510" y="170" width="220" height="30" as="geometry" />
        </mxCell>
        <mxCell id="zXwG6xM1pBQp9K-t3F6Q-2" value="customer_Phone_No char(50) NOT NULL" style="shape=partialRectangle;overflow=hidden;connectable=0;fillColor=none;top=0;left=0;bottom=0;right=0;align=left;spacingLeft=6;" vertex="1" parent="1">
          <mxGeometry x="510" y="200" width="220" height="30" as="geometry" />
        </mxCell>
        <mxCell id="zXwG6xM1pBQp9K-t3F6Q-3" value="Product_Id Number " style="shape=partialRectangle;overflow=hidden;connectable=0;fillColor=none;top=0;left=0;bottom=0;right=0;align=left;spacingLeft=6;" vertex="1" parent="1">
          <mxGeometry x="510" y="240" width="220" height="30" as="geometry" />
        </mxCell>
        <mxCell id="zXwG6xM1pBQp9K-t3F6Q-4" value="FK" style="shape=partialRectangle;overflow=hidden;connectable=0;fillColor=none;top=0;left=0;bottom=0;right=0;fontStyle=1;" vertex="1" parent="1">
          <mxGeometry x="480" y="240" width="30" height="30" as="geometry" />
        </mxCell>
        <mxCell id="zXwG6xM1pBQp9K-t3F6Q-5" value="Shop_No Number " style="shape=partialRectangle;overflow=hidden;connectable=0;fillColor=none;top=0;left=0;bottom=0;right=0;align=left;spacingLeft=6;" vertex="1" parent="1">
          <mxGeometry x="510" y="270" width="220" height="30" as="geometry" />
        </mxCell>
        <mxCell id="zXwG6xM1pBQp9K-t3F6Q-6" value="FK" style="shape=partialRectangle;overflow=hidden;connectable=0;fillColor=none;top=0;left=0;bottom=0;right=0;fontStyle=1;" vertex="1" parent="1">
          <mxGeometry x="480" y="270" width="30" height="30" as="geometry" />
        </mxCell>
        <mxCell id="zXwG6xM1pBQp9K-t3F6Q-7" value="Entity Relationship Diagram" style="text;html=1;strokeColor=none;fillColor=none;align=center;verticalAlign=middle;whiteSpace=wrap;rounded=0;fontStyle=1;fontFamily=Times New Roman;fontSize=23;" vertex="1" parent="1">
          <mxGeometry x="160" y="20" width="490" height="20" as="geometry" />
        </mxCell>
        <mxCell id="zXwG6xM1pBQp9K-t3F6Q-27" value="Shop" style="shape=table;startSize=30;container=1;collapsible=1;childLayout=tableLayout;fixedRows=1;rowLines=0;fontStyle=1;align=center;resizeLast=1;" vertex="1" parent="1">
          <mxGeometry x="70" y="80" width="280" height="240" as="geometry" />
        </mxCell>
        <mxCell id="zXwG6xM1pBQp9K-t3F6Q-28" value="" style="shape=partialRectangle;collapsible=0;dropTarget=0;pointerEvents=0;fillColor=none;points=[[0,0.5],[1,0.5]];portConstraint=eastwest;top=0;left=0;right=0;bottom=1;" vertex="1" parent="zXwG6xM1pBQp9K-t3F6Q-27">
          <mxGeometry y="30" width="280" height="30" as="geometry" />
        </mxCell>
        <mxCell id="zXwG6xM1pBQp9K-t3F6Q-29" value="PK" style="shape=partialRectangle;overflow=hidden;connectable=0;fillColor=none;top=0;left=0;bottom=0;right=0;fontStyle=1;" vertex="1" parent="zXwG6xM1pBQp9K-t3F6Q-28">
          <mxGeometry width="30" height="30" as="geometry" />
        </mxCell>
        <mxCell id="zXwG6xM1pBQp9K-t3F6Q-30" value="Shop_No Number  NOT NULL " style="shape=partialRectangle;overflow=hidden;connectable=0;fillColor=none;top=0;left=0;bottom=0;right=0;align=left;spacingLeft=6;fontStyle=5;" vertex="1" parent="zXwG6xM1pBQp9K-t3F6Q-28">
          <mxGeometry x="30" width="250" height="30" as="geometry" />
        </mxCell>
        <mxCell id="zXwG6xM1pBQp9K-t3F6Q-31" value="" style="shape=partialRectangle;collapsible=0;dropTarget=0;pointerEvents=0;fillColor=none;points=[[0,0.5],[1,0.5]];portConstraint=eastwest;top=0;left=0;right=0;bottom=0;" vertex="1" parent="zXwG6xM1pBQp9K-t3F6Q-27">
          <mxGeometry y="60" width="280" height="30" as="geometry" />
        </mxCell>
        <mxCell id="zXwG6xM1pBQp9K-t3F6Q-32" value="" style="shape=partialRectangle;overflow=hidden;connectable=0;fillColor=none;top=0;left=0;bottom=0;right=0;" vertex="1" parent="zXwG6xM1pBQp9K-t3F6Q-31">
          <mxGeometry width="30" height="30" as="geometry" />
        </mxCell>
        <mxCell id="zXwG6xM1pBQp9K-t3F6Q-33" value="Shop_name char(50) NOT NULL" style="shape=partialRectangle;overflow=hidden;connectable=0;fillColor=none;top=0;left=0;bottom=0;right=0;align=left;spacingLeft=6;" vertex="1" parent="zXwG6xM1pBQp9K-t3F6Q-31">
          <mxGeometry x="30" width="250" height="30" as="geometry" />
        </mxCell>
        <mxCell id="zXwG6xM1pBQp9K-t3F6Q-34" value="Shop_Address char(50) NOT NULL" style="shape=partialRectangle;overflow=hidden;connectable=0;fillColor=none;top=0;left=0;bottom=0;right=0;align=left;spacingLeft=6;" vertex="1" parent="1">
          <mxGeometry x="100" y="170" width="220" height="30" as="geometry" />
        </mxCell>
        <mxCell id="zXwG6xM1pBQp9K-t3F6Q-35" value="Postal_code  Number NOT NULL" style="shape=partialRectangle;overflow=hidden;connectable=0;fillColor=none;top=0;left=0;bottom=0;right=0;align=left;spacingLeft=6;" vertex="1" parent="1">
          <mxGeometry x="100" y="200" width="220" height="30" as="geometry" />
        </mxCell>
        <mxCell id="zXwG6xM1pBQp9K-t3F6Q-36" value="Product_Id Number " style="shape=partialRectangle;overflow=hidden;connectable=0;fillColor=none;top=0;left=0;bottom=0;right=0;align=left;spacingLeft=6;" vertex="1" parent="1">
          <mxGeometry x="100" y="240" width="220" height="30" as="geometry" />
        </mxCell>
        <mxCell id="zXwG6xM1pBQp9K-t3F6Q-37" value="FK" style="shape=partialRectangle;overflow=hidden;connectable=0;fillColor=none;top=0;left=0;bottom=0;right=0;fontStyle=1;" vertex="1" parent="1">
          <mxGeometry x="70" y="240" width="30" height="30" as="geometry" />
        </mxCell>
        <mxCell id="zXwG6xM1pBQp9K-t3F6Q-38" value="Customer_Id Number " style="shape=partialRectangle;overflow=hidden;connectable=0;fillColor=none;top=0;left=0;bottom=0;right=0;align=left;spacingLeft=6;" vertex="1" parent="1">
          <mxGeometry x="100" y="270" width="220" height="30" as="geometry" />
        </mxCell>
        <mxCell id="zXwG6xM1pBQp9K-t3F6Q-39" value="FK" style="shape=partialRectangle;overflow=hidden;connectable=0;fillColor=none;top=0;left=0;bottom=0;right=0;fontStyle=1;" vertex="1" parent="1">
          <mxGeometry x="70" y="270" width="30" height="30" as="geometry" />
        </mxCell>
        <mxCell id="zXwG6xM1pBQp9K-t3F6Q-40" value="Product" style="shape=table;startSize=30;container=1;collapsible=1;childLayout=tableLayout;fixedRows=1;rowLines=0;fontStyle=1;align=center;resizeLast=1;" vertex="1" parent="1">
          <mxGeometry x="280" y="360" width="280" height="200" as="geometry" />
        </mxCell>
        <mxCell id="zXwG6xM1pBQp9K-t3F6Q-41" value="" style="shape=partialRectangle;collapsible=0;dropTarget=0;pointerEvents=0;fillColor=none;points=[[0,0.5],[1,0.5]];portConstraint=eastwest;top=0;left=0;right=0;bottom=1;" vertex="1" parent="zXwG6xM1pBQp9K-t3F6Q-40">
          <mxGeometry y="30" width="280" height="30" as="geometry" />
        </mxCell>
        <mxCell id="zXwG6xM1pBQp9K-t3F6Q-42" value="PK" style="shape=partialRectangle;overflow=hidden;connectable=0;fillColor=none;top=0;left=0;bottom=0;right=0;fontStyle=1;" vertex="1" parent="zXwG6xM1pBQp9K-t3F6Q-41">
          <mxGeometry width="30" height="30" as="geometry" />
        </mxCell>
        <mxCell id="zXwG6xM1pBQp9K-t3F6Q-43" value="Product_id Number  NOT NULL " style="shape=partialRectangle;overflow=hidden;connectable=0;fillColor=none;top=0;left=0;bottom=0;right=0;align=left;spacingLeft=6;fontStyle=5;" vertex="1" parent="zXwG6xM1pBQp9K-t3F6Q-41">
          <mxGeometry x="30" width="250" height="30" as="geometry" />
        </mxCell>
        <mxCell id="zXwG6xM1pBQp9K-t3F6Q-44" value="" style="shape=partialRectangle;collapsible=0;dropTarget=0;pointerEvents=0;fillColor=none;points=[[0,0.5],[1,0.5]];portConstraint=eastwest;top=0;left=0;right=0;bottom=0;" vertex="1" parent="zXwG6xM1pBQp9K-t3F6Q-40">
          <mxGeometry y="60" width="280" height="30" as="geometry" />
        </mxCell>
        <mxCell id="zXwG6xM1pBQp9K-t3F6Q-45" value="" style="shape=partialRectangle;overflow=hidden;connectable=0;fillColor=none;top=0;left=0;bottom=0;right=0;" vertex="1" parent="zXwG6xM1pBQp9K-t3F6Q-44">
          <mxGeometry width="30" height="30" as="geometry" />
        </mxCell>
        <mxCell id="zXwG6xM1pBQp9K-t3F6Q-46" value="Product_name char(50) NOT NULL" style="shape=partialRectangle;overflow=hidden;connectable=0;fillColor=none;top=0;left=0;bottom=0;right=0;align=left;spacingLeft=6;" vertex="1" parent="zXwG6xM1pBQp9K-t3F6Q-44">
          <mxGeometry x="30" width="250" height="30" as="geometry" />
        </mxCell>
        <mxCell id="zXwG6xM1pBQp9K-t3F6Q-47" value="Category_No Number" style="shape=partialRectangle;overflow=hidden;connectable=0;fillColor=none;top=0;left=0;bottom=0;right=0;align=left;spacingLeft=6;" vertex="1" parent="1">
          <mxGeometry x="310" y="450" width="220" height="30" as="geometry" />
        </mxCell>
        <mxCell id="zXwG6xM1pBQp9K-t3F6Q-49" value="Product_Id Number " style="shape=partialRectangle;overflow=hidden;connectable=0;fillColor=none;top=0;left=0;bottom=0;right=0;align=left;spacingLeft=6;" vertex="1" parent="1">
          <mxGeometry x="310" y="480" width="220" height="30" as="geometry" />
        </mxCell>
        <mxCell id="zXwG6xM1pBQp9K-t3F6Q-50" value="FK" style="shape=partialRectangle;overflow=hidden;connectable=0;fillColor=none;top=0;left=0;bottom=0;right=0;fontStyle=1;" vertex="1" parent="1">
          <mxGeometry x="280" y="520" width="30" height="30" as="geometry" />
        </mxCell>
        <mxCell id="zXwG6xM1pBQp9K-t3F6Q-51" value="Shop_No Number " style="shape=partialRectangle;overflow=hidden;connectable=0;fillColor=none;top=0;left=0;bottom=0;right=0;align=left;spacingLeft=6;" vertex="1" parent="1">
          <mxGeometry x="310" y="520" width="220" height="30" as="geometry" />
        </mxCell>
        <mxCell id="zXwG6xM1pBQp9K-t3F6Q-52" value="FK" style="shape=partialRectangle;overflow=hidden;connectable=0;fillColor=none;top=0;left=0;bottom=0;right=0;fontStyle=1;" vertex="1" parent="1">
          <mxGeometry x="280" y="480" width="30" height="30" as="geometry" />
        </mxCell>
        <mxCell id="zXwG6xM1pBQp9K-t3F6Q-55" value="" style="edgeStyle=entityRelationEdgeStyle;fontSize=12;html=1;endArrow=ERmany;startArrow=ERmany;" edge="1" parent="1" target="zXwG6xM1pBQp9K-t3F6Q-41">
          <mxGeometry width="100" height="100" relative="1" as="geometry">
            <mxPoint x="760" y="260" as="sourcePoint" />
            <mxPoint x="880" y="410" as="targetPoint" />
          </mxGeometry>
        </mxCell>
        <mxCell id="zXwG6xM1pBQp9K-t3F6Q-56" value="" style="edgeStyle=entityRelationEdgeStyle;fontSize=12;html=1;endArrow=ERmany;startArrow=ERmany;" edge="1" parent="1">
          <mxGeometry width="100" height="100" relative="1" as="geometry">
            <mxPoint x="350" y="280" as="sourcePoint" />
            <mxPoint x="480" y="130" as="targetPoint" />
          </mxGeometry>
        </mxCell>
        <mxCell id="zXwG6xM1pBQp9K-t3F6Q-61" value="" style="edgeStyle=entityRelationEdgeStyle;fontSize=12;html=1;endArrow=ERoneToMany;entryX=0;entryY=0.5;entryDx=0;entryDy=0;verticalAlign=middle;textDirection=ltr;" edge="1" parent="1" target="zXwG6xM1pBQp9K-t3F6Q-41">
          <mxGeometry width="100" height="100" relative="1" as="geometry">
            <mxPoint x="70" y="260" as="sourcePoint" />
            <mxPoint x="420" y="370" as="targetPoint" />
          </mxGeometry>
        </mxCell>
      </root>
    </mxGraphModel>
  </diagram>
</mxfile>
